<svg id="Calque_1" xmlns="http://www.w3.org/2000/svg" viewBox="0 0 269.1 496.2"><style>.st1{fill:#173646}.st2{fill:#ffdfa4}.st3{fill:#d3b688}.st4{fill:#efefef}.st5{fill:#d8d4d4}.st7{fill:#2e6b8b}.st8{fill:#5889a2}.st9{fill:#b3b3b3}.st10{fill:#eb6b56}.st12{fill:#0b1b2c}.st13{fill:#050d16}.st15{fill:#2a637c}</style><g id="Page-1"><g id="Validation-De-Compte-01" transform="translate(-224 -191)"><g id="Group-4" transform="translate(224 190)"><g id="Group-5"><g id="superman"><path id="Path" d="M218.6 483.6c0 7.5-48.7 13.6-108.7 13.6-60.1 0-108.7-6.1-108.7-13.6S49.9 470 109.9 470s108.7 6.1 108.7 13.6z" fill="#3f819e"/><g id="Group"><path class="st1" d="M79.3 273.9L65.4 278l9.1-60.4 10.2 40zM186.6 238.3c-.1-.4-6-16.2-13.8-35.2-3.7 16.2-10.3 37.3-13.4 47.2 0 0-5 10.8-4.3 20.9 0 0 16.7-11 33.4 0 1.2-9.8.1-21.4-1.9-32.9z"/><g transform="translate(235.792)"><path class="st2" d="M2.9 32.9L5 28-.2 14.2 5 4.5h3.8L12 1l11.1 3.4 10.3 15.2-16.4 24z"/><path id="Shape" class="st3" d="M26.8 22.7c-.5.7-1.3 1.2-2.1 1.5-.7.2-1.5.1-2-.2-.5-.4-.9-1-.9-1.8 0-.9.2-1.7.9-2.4l-.8-.8c-1.1 1.5-2.9 2.1-4 1.2-1.1-.9-1.1-2.7 0-4.3l-.1-.1c1.1-.1 2.1-.5 2.9-1 1.1-.7 1.8-2 2-3.4V11L9 4.1l-.4.8 13 6.6c-.2 1-.7 1.7-1.5 2.3-2.7 1.8-7.7.5-7.7.5l-.4 1c1.7.7 2.8 1.8 3.3 3.3 1.1 3.3-1.3 7.5-1.3 7.6l.9.5c.1-.1 2-3.3 1.8-6.6.2.2.4.6.7.9 1 .7 2.4.7 3.7.1 0 .4-.1.6-.1 1 0 1.1.5 2 1.2 2.6.5.4 1.2.6 1.8.6.4 0 .6 0 1-.1 1-.2 2-1 2.6-1.8l-.8-.7zm-12.3-6.9c.6.1 1.3.1 2.1.1-.4.6-.6 1.3-.6 2-.4-.7-.9-1.5-1.5-2.1z"/></g><path class="st4" d="M79.5 255.8s21.1-8.2 78.1 0c0 0 18.8-57 17.8-70.7l-31.6-49.9H97.2l-26.6 74.3c0-.1 6 37.1 8.9 46.3z"/><path class="st5" d="M89.7 168.8s-1.5-.5-4-1.3l-15 42s6 37.2 8.8 46.4c0 0 1.6-.6 4.9-1.3l.1-.1c-.1-.2-2.9-62.9 5.2-85.7zM150 254l.5.7c2.3.2 4.6.6 7.1 1 0 0 18.8-57 17.8-70.7l-31.6-49.9h-5.1c18.2 30.2 21.3 61.3 21.3 61.3 2.2 18-10 57.6-10 57.6z"/><path fill="#bcd0da" d="M123 156.9l-34.5 21.3 10.6 31.1 23.9 21.5 23.9-21.5 10.7-31.1z"/><path class="st4" d="M233.7 39.7l4.4-6.7s13.4.7 17.5 10.6l-4.5 7.3-17.4-11.2z"/><path class="st7" d="M182.2 177.2l4.5-16.4 66.1-110C248 38.6 233.1 38 233.1 38l-75.6 99.1-13.9-2.1 26.1 47.4s23.1 54.8 18.7 88.7c0 0 11-49.1 0-85.2 0 .1-2-3.3-6.2-8.7z"/><path class="st8" d="M136.2 131.3h4.3l41 38.1-6.1 9.8 11.1 9.4v49.7s-29.2-79-45.1-98.7l-2.9-4.4h-2.3v-3.9z"/><path class="st7" d="M96.3 136.8L0 182l7.1 24.3 55.6 7.8-1.7-7 6.4-15-19.3-4.7 18.6-5.8 2.1 12.1 5.7-2.1z"/><path class="st8" d="M101.5 135.1l-17.4 47.5-6.4-4.4 18.6-45.4 5-1.5z"/><path class="st7" d="M35.9 276.7l29.5 1.3 9.1-63.9-16.2-.6z"/><path class="st8" d="M75.5 206.7L65.4 278l-9.8-57.7 8.8-6.2z"/><path class="st9" d="M102.6 136.8l7.6 7.2 6.7-8.9-6.3 13zM123 135.1l6.3 12.2 6.9-12.2-7.1 8.2z"/><path class="st10" d="M111.7 142.2l3.9 4h7.4l4.5-5-4.5-6.1h-6.1z"/><path class="st10" d="M57.1 132.8l20.6 4.5 20.9 23.4s11-1.1 14-12.1l2.9-2.3h7.5l2 3.8s-5.4 19.8-25.8 22.9c0 0-26.4-6.6-35.1-18.5l-7-21.7z"/><path class="st4" d="M62.8 214s6.1 2.1 9.7-5.3v-17.3l-5 .5-6.5 15 1.8 7.1z"/><g transform="translate(64.751 177.42)"><path class="st2" d="M7.7 5.2L13 .8l13.3 10L17 30.6 9.8 28S6.7 34 2 30.6c0 0-2.8-1.1-1.3-7.8l7-17.6z"/><path id="Rectangle" class="st3" d="M11.6 23.5l.9-1.9 7.2 3.4-.9 1.9z"/><path class="st3" d="M22.1 19.7l-7.2-3.4-.9 1.8 7.3 3.5zM24.9 14l-7.3-3.7-.9 1.8 7.2 3.7z"/></g><path class="st2" d="M80.5 171.4s-1.7-4-4.3-2.2c0 0-2.9 2 1.8 8.6l2.5-6.4z"/><path d="M157.6 255.8s-43-11.4-78.1 0L50.8 468.4 61 479.3l56.2-182.6h7.8l41 188.1 15.5-12.8c0-.2-18.9-196.8-23.9-216.2z" fill="#153558"/><path class="st12" d="M84.3 254.3c-1.6.4-3.3.9-4.9 1.5l-6 44.7L84.3 255v-.7zM108.5 289.5L57.8 475.8l3.2 3.5 56.2-182.7h7.8l4.5-7.2zM181.5 471.8s-18.9-196.5-23.9-216.1c0 0-2.8-.7-7.6-1.7l26.9 221.6 4.6-3.8z"/><path d="M50.8 468.4L29.7 481l31.3-1.7zM181.5 471.8l17.8 17.7-33.3-4.8z"/><path class="st3" d="M62.1 68.2c0 3.8 0 7.3-.1 10.4 2.2-.7 3.8-2.8 3.8-5.3-.1-2.3-1.7-4.4-3.7-5.1z" transform="translate(79.412 29.366)"/><path class="st2" d="M21.3 91.2l.8 14.5h34.7V87z" transform="translate(79.412 29.366)"/><path class="st2" d="M62.1 43.6c-.2.7-14.3-6.4-14.3-6.4l-35.6 6.9-1.5 21.7 2.1 6.9c-2.8 0-5.1 2.3-5.1 5.1 0 2.9 2.4 5.4 5.4 5.4 1 0 1.8-.2 2.7-.7l2.9 9.9 21.6 10.9L62.2 87c-.3.1.1-44.2-.1-43.4z" transform="translate(79.412 29.366)"/><path class="st13" d="M64.8 37.1c5.7-6 11-16.8 10-36.2 0 0-17 9.2-40.1 14.3 0 0-18.9 2.3-25.8 9.5 0 0-4.4 6-1.5 12.6 0 0-8.7 2.4-7.3 13.8 0 0-.1 9.8 9.9 22.3 0 0 1.8-.6 2.4-.7 0 0 3.9-15.2 1.3-22.3 0 0 3.4-6.6 15-6 0 0 16.2 2.1 23.2 0 0 0 .7-.1 2.1-.5 0 0 6.6 10.4 7.7 23.1.4.1 5-20.4 3.1-29.9z" transform="translate(79.412 29.366)"/><path class="st13" d="M51.6 63.2c0 1.2-1 2.2-2.2 2.2-1.2 0-2.2-1-2.2-2.2 0-1.2 1-2.2 2.2-2.2 1.2 0 2.2.9 2.2 2.2zM27.5 63.2c0 1.2-1 2.2-2.2 2.2-1.2 0-2.2-1-2.2-2.2 0-1.2 1-2.2 2.2-2.2 1.2 0 2.2.9 2.2 2.2zM46.1 58.9l-.9-.6c.1-.1 2.4-3.3 6.4-3.5l.1 1c-3.6.1-5.6 3-5.6 3.1zM28.8 58.9s-2.1-2.7-5.7-3.2l.1-1c4 .5 6.4 3.4 6.5 3.5l-.9.7z" transform="translate(79.412 29.366)"/><path class="st3" d="M40.9 65.4v10.1h-5.2l5.2 4.3 4.7-3.9z" transform="translate(79.412 29.366)"/><path d="M39.1 86.4c-3.9 0-7-1.3-7-1.3l.4-1c.1 0 8.4 3.8 14.4-1.5l.6.7c-2.7 2.5-5.7 3.1-8.4 3.1z" fill="#231f20" transform="translate(79.412 29.366)"/><path class="st3" d="M56.8 95.5l-16.7 7.9 16.7-12.5zM21.4 94l7.4 3.8-7.3-2.6z" transform="translate(79.412 29.366)"/><path class="st15" d="M66.7 181.6l-18.6 5.8-10-2.9zM62.8 214l-1.8-6.9L9.9 199 0 182l7.1 24.3zM252.8 50.9l-69.3 101.9-1.3 24.4 4.5-16.3z"/></g></g><path d="M109.8 186.9c.3 0 .3 0 .4-.1.3-.4.6-.7 1-1 1.1-1 2.4-1.6 3.7-2 1.2-.4 2.4-.5 3.6-.6 1-.1 2.1-.1 3.1.1.7.1 1.4.3 2.1.7.7.4 1.3 1 1.6 1.8.5 1.1.5 2.2.1 3.3-.3.8-.9 1.5-1.5 2-1.2.9-2.3 1.8-3.4 2.8-.7.6-1.4 1.1-2 1.8-.8.8-1.4 1.6-1.9 2.6-.5 1.2-.7 2.4-.7 3.7v.4c.3 1.7 1.9 2.8 3.3 2.9h3.1v-.3-2.6c0-1 .4-1.8 1-2.5.4-.5.9-.9 1.4-1.3 1.6-1.3 3.2-2.6 4.8-4 .8-.7 1.6-1.4 2.3-2.2.8-.9 1.4-1.9 1.7-3.1.4-1.4.4-2.8.2-4.3-.4-2.6-1.8-4.8-3.9-6.3-1.6-1.2-3.5-1.8-5.4-2.2-1.4-.2-2.8-.3-4.2-.2-1.3.1-2.5.3-3.7.6-1.5.4-2.8 1.1-3.9 2.1-1.5 1.4-2.5 3.1-2.5 5.1-.4.7-.3 1.7-.3 2.8 0-.1 0-.1 0 0z" fill="#fff"/></g></g></g></g></svg>
